<svg width="451" height="75" viewBox="0 0 451 75" fill="none" xmlns="http://www.w3.org/2000/svg">
<path d="M44.0938 26.7344C44.0938 30.7344 43.0938 34.1094 41.0938 36.8594C39.0938 39.5781 36.4062 41.6406 33.0312 43.0469C29.6562 44.4219 25.9062 45.1094 21.7812 45.1094C20.9062 45.1094 20 45.0625 19.0625 44.9688C18.1562 44.8438 17.2188 44.6719 16.25 44.4531L15.9688 40.2344C17.0625 40.4219 17.9688 40.5469 18.6875 40.6094C19.4375 40.6719 20.2031 40.7031 20.9844 40.7031C25.6719 40.7031 29.2344 39.625 31.6719 37.4688C34.1094 35.2812 35.3281 32.1875 35.3281 28.1875C35.3281 24.9375 34.1562 22.2344 31.8125 20.0781C29.5 17.8906 25.5938 16.7969 20.0938 16.7969C17.3438 16.7969 14.3125 17 11 17.4062C7.6875 17.7812 4.4375 18.2188 1.25 18.7188L0.734375 15.3438C3.79688 14.625 7.03125 13.9844 10.4375 13.4219C13.8438 12.8281 17.6719 12.5312 21.9219 12.5312C29.5781 12.5312 35.1875 13.8906 38.75 16.6094C42.3125 19.3281 44.0938 22.7031 44.0938 26.7344ZM54.0312 71.0312C51.9688 71.7188 49.8438 72.3281 47.6562 72.8594C45.5 73.3906 43.8125 73.6562 42.5938 73.6562C41.7188 73.6562 40.8438 73.4062 39.9688 72.9062C39.0938 72.375 38.4375 71.7656 38 71.0781L23.7031 44.3125L29.2812 41.2188L45.3125 65.7812C46.2812 67.125 47.3438 67.9688 48.5 68.3125C49.6875 68.6562 51.3438 68.7344 53.4688 68.5469L54.0312 71.0312ZM1.25 73V70.5156C3.34375 70.0781 4.96875 69.5938 6.125 69.0625C7.3125 68.5312 7.90625 68.0625 7.90625 67.6562V16.0938H16.8125V67.6562C16.8125 68.0312 17.3594 68.5 18.4531 69.0625C19.5469 69.5938 21.2344 70.0781 23.5156 70.5156V73H1.25ZM95.8438 46.9844C95.2812 47.6406 94.4531 48.2812 93.3594 48.9062C92.2656 49.5 91.2188 49.9844 90.2188 50.3594H62.8438L62.9375 45.8125H85.2031C85.9219 45.8125 86.3906 45.7031 86.6094 45.4844C86.8594 45.2344 86.9844 44.7812 86.9844 44.125C86.9844 42.9688 86.7344 41.5312 86.2344 39.8125C85.7656 38.0625 84.875 36.5156 83.5625 35.1719C82.25 33.8281 80.3281 33.1562 77.7969 33.1562C74.1719 33.1562 71.3594 34.7188 69.3594 37.8438C67.3906 40.9688 66.4062 44.9531 66.4062 49.7969C66.4062 53.0469 66.9219 56.0312 67.9531 58.75C68.9844 61.4688 70.4844 63.6406 72.4531 65.2656C74.4219 66.8906 76.7969 67.7031 79.5781 67.7031C80.8906 67.7031 82.1562 67.5781 83.375 67.3281C84.625 67.0781 86.0469 66.5156 87.6406 65.6406C89.2344 64.7656 91.2188 63.4062 93.5938 61.5625C94 61.7812 94.3906 62.1562 94.7656 62.6875C95.1719 63.2188 95.4375 63.6094 95.5625 63.8594C92.75 66.8594 90.3281 69.125 88.2969 70.6562C86.2656 72.1562 84.3281 73.1562 82.4844 73.6562C80.6406 74.1562 78.5938 74.4062 76.3438 74.4062C73.0312 74.4062 69.9688 73.5 67.1562 71.6875C64.3438 69.875 62.0781 67.3281 60.3594 64.0469C58.6719 60.7656 57.8281 56.9219 57.8281 52.5156C57.8281 48.2969 58.7031 44.375 60.4531 40.75C62.2344 37.125 64.7344 34.1875 67.9531 31.9375C69.4219 30.9062 71.1875 30 73.25 29.2188C75.3438 28.4062 77.3438 28 79.25 28C82.3125 28 84.8906 28.5781 86.9844 29.7344C89.1094 30.8594 90.8281 32.3594 92.1406 34.2344C93.4531 36.1094 94.3906 38.1719 94.9531 40.4219C95.5469 42.6406 95.8438 44.8281 95.8438 46.9844ZM146.375 31.8906C144.5 32.3281 143.266 32.75 142.672 33.1562C142.109 33.5312 141.656 34.1719 141.312 35.0781L128.047 69.8594C127.516 71.2656 126.484 72.3125 124.953 73C123.453 73.6875 122.188 74.1562 121.156 74.4062L105.312 35.0781C104.969 34.2656 104.422 33.625 103.672 33.1562C102.922 32.6562 101.781 32.2344 100.25 31.8906V29.4062H119.375V31.8906C116.969 32.2031 115.422 32.5625 114.734 32.9688C114.047 33.375 113.906 34.0781 114.312 35.0781L125.375 62.9688L135.734 35.0781C136.078 34.1406 135.969 33.4688 135.406 33.0625C134.844 32.625 133.453 32.2344 131.234 31.8906V29.4062H146.375V31.8906ZM186.406 46.9844C185.844 47.6406 185.016 48.2812 183.922 48.9062C182.828 49.5 181.781 49.9844 180.781 50.3594H153.406L153.5 45.8125H175.766C176.484 45.8125 176.953 45.7031 177.172 45.4844C177.422 45.2344 177.547 44.7812 177.547 44.125C177.547 42.9688 177.297 41.5312 176.797 39.8125C176.328 38.0625 175.438 36.5156 174.125 35.1719C172.812 33.8281 170.891 33.1562 168.359 33.1562C164.734 33.1562 161.922 34.7188 159.922 37.8438C157.953 40.9688 156.969 44.9531 156.969 49.7969C156.969 53.0469 157.484 56.0312 158.516 58.75C159.547 61.4688 161.047 63.6406 163.016 65.2656C164.984 66.8906 167.359 67.7031 170.141 67.7031C171.453 67.7031 172.719 67.5781 173.938 67.3281C175.188 67.0781 176.609 66.5156 178.203 65.6406C179.797 64.7656 181.781 63.4062 184.156 61.5625C184.562 61.7812 184.953 62.1562 185.328 62.6875C185.734 63.2188 186 63.6094 186.125 63.8594C183.312 66.8594 180.891 69.125 178.859 70.6562C176.828 72.1562 174.891 73.1562 173.047 73.6562C171.203 74.1562 169.156 74.4062 166.906 74.4062C163.594 74.4062 160.531 73.5 157.719 71.6875C154.906 69.875 152.641 67.3281 150.922 64.0469C149.234 60.7656 148.391 56.9219 148.391 52.5156C148.391 48.2969 149.266 44.375 151.016 40.75C152.797 37.125 155.297 34.1875 158.516 31.9375C159.984 30.9062 161.75 30 163.812 29.2188C165.906 28.4062 167.906 28 169.812 28C172.875 28 175.453 28.5781 177.547 29.7344C179.672 30.8594 181.391 32.3594 182.703 34.2344C184.016 36.1094 184.953 38.1719 185.516 40.4219C186.109 42.6406 186.406 44.8281 186.406 46.9844ZM227.703 29.8281C227.984 30.0156 228.094 30.625 228.031 31.6562C228 32.6875 227.828 33.9219 227.516 35.3594C227.234 36.7656 226.891 38.1562 226.484 39.5312C226.109 40.875 225.734 41.9688 225.359 42.8125H222.875C222.531 40.2812 221.891 38.3906 220.953 37.1406C220.047 35.8906 218.953 35.2656 217.672 35.2656C216.328 35.2656 214.672 36.2656 212.703 38.2656C210.734 40.2344 208.938 43.6719 207.312 48.5781V67.6562C207.312 68.125 207.922 68.6094 209.141 69.1094C210.359 69.6094 212.438 70.0781 215.375 70.5156V73H192.453V70.5156C196.734 69.5469 198.875 68.5938 198.875 67.6562V41.1719C198.875 39.1094 198.766 37.6719 198.547 36.8594C198.328 36.0469 198.078 35.5 197.797 35.2188C197.391 34.8125 196.828 34.5312 196.109 34.375C195.391 34.1875 194.172 34.0469 192.453 33.9531V31.6094C194.922 31.1406 197.125 30.6406 199.062 30.1094C201.031 29.5781 202.969 28.875 204.875 28L206.609 29.7344L207.219 39.1094C208.906 35.9844 210.906 33.3594 213.219 31.2344C215.562 29.0781 218.078 28 220.766 28C221.828 28 222.969 28.1406 224.188 28.4219C225.406 28.7031 226.578 29.1719 227.703 29.8281ZM279.266 68.5938C273.453 72.4688 269.594 74.4062 267.688 74.4062C266.344 74.4062 265.312 73.2656 264.594 70.9844C263.875 68.7031 263.516 64.9688 263.516 59.7812V13.75C263.516 11.4375 263.406 9.75 263.188 8.6875C262.969 7.59375 262.391 6.85938 261.453 6.48438C260.547 6.10938 259.016 5.84375 256.859 5.6875V3.39062C259.703 3.04688 262.266 2.59375 264.547 2.03125C266.828 1.4375 268.781 0.875 270.406 0.34375L271.953 1.84375V60.3906C271.953 62.5781 272.047 64.1562 272.234 65.125C272.422 66.0625 272.688 66.7188 273.031 67.0938C273.312 67.4062 273.828 67.5 274.578 67.375C275.328 67.25 276.609 66.8281 278.422 66.1094L279.266 68.5938ZM266.984 61.5156C264.734 64.2656 262.656 66.6094 260.75 68.5469C258.875 70.4531 256.953 71.9062 254.984 72.9062C253.047 73.9062 250.828 74.4062 248.328 74.4062C245.859 74.4062 243.375 73.5312 240.875 71.7812C238.375 70 236.281 67.4531 234.594 64.1406C232.938 60.7969 232.109 56.8125 232.109 52.1875C232.109 49.3438 232.641 46.5 233.703 43.6562C234.797 40.8125 236.328 38.2031 238.297 35.8281C240.297 33.4531 242.656 31.5625 245.375 30.1562C248.094 28.7188 251.109 28 254.422 28C256.297 28 258.188 28.3281 260.094 28.9844C262 29.6094 264.172 31.1094 266.609 33.4844C266.609 35.3594 266.391 36.7188 265.953 37.5625C265.547 38.4062 264.844 39.125 263.844 39.7188C262.812 37.75 261.359 36.2188 259.484 35.125C257.609 34.0312 255.516 33.4844 253.203 33.4844C249.516 33.4844 246.484 34.875 244.109 37.6562C241.734 40.4375 240.547 44.6719 240.547 50.3594C240.547 53.8281 241.156 56.8438 242.375 59.4062C243.594 61.9375 245.094 63.9062 246.875 65.3125C248.656 66.6875 250.406 67.375 252.125 67.375C254.406 67.375 256.594 66.5156 258.688 64.7969C260.781 63.0781 262.938 61.1719 265.156 59.0781C265.531 59.2656 265.891 59.6562 266.234 60.25C266.609 60.8438 266.859 61.2656 266.984 61.5156ZM321.406 46.9844C320.844 47.6406 320.016 48.2812 318.922 48.9062C317.828 49.5 316.781 49.9844 315.781 50.3594H288.406L288.5 45.8125H310.766C311.484 45.8125 311.953 45.7031 312.172 45.4844C312.422 45.2344 312.547 44.7812 312.547 44.125C312.547 42.9688 312.297 41.5312 311.797 39.8125C311.328 38.0625 310.438 36.5156 309.125 35.1719C307.812 33.8281 305.891 33.1562 303.359 33.1562C299.734 33.1562 296.922 34.7188 294.922 37.8438C292.953 40.9688 291.969 44.9531 291.969 49.7969C291.969 53.0469 292.484 56.0312 293.516 58.75C294.547 61.4688 296.047 63.6406 298.016 65.2656C299.984 66.8906 302.359 67.7031 305.141 67.7031C306.453 67.7031 307.719 67.5781 308.938 67.3281C310.188 67.0781 311.609 66.5156 313.203 65.6406C314.797 64.7656 316.781 63.4062 319.156 61.5625C319.562 61.7812 319.953 62.1562 320.328 62.6875C320.734 63.2188 321 63.6094 321.125 63.8594C318.312 66.8594 315.891 69.125 313.859 70.6562C311.828 72.1562 309.891 73.1562 308.047 73.6562C306.203 74.1562 304.156 74.4062 301.906 74.4062C298.594 74.4062 295.531 73.5 292.719 71.6875C289.906 69.875 287.641 67.3281 285.922 64.0469C284.234 60.7656 283.391 56.9219 283.391 52.5156C283.391 48.2969 284.266 44.375 286.016 40.75C287.797 37.125 290.297 34.1875 293.516 31.9375C294.984 30.9062 296.75 30 298.812 29.2188C300.906 28.4062 302.906 28 304.812 28C307.875 28 310.453 28.5781 312.547 29.7344C314.672 30.8594 316.391 32.3594 317.703 34.2344C319.016 36.1094 319.953 38.1719 320.516 40.4219C321.109 42.6406 321.406 44.8281 321.406 46.9844ZM365.188 64.0938C362.469 67.25 360.109 69.5625 358.109 71.0312C356.109 72.4688 354.25 73.3906 352.531 73.7969C350.812 74.2031 348.969 74.4062 347 74.4062C343.844 74.4062 340.844 73.5312 338 71.7812C335.188 70 332.891 67.4531 331.109 64.1406C329.359 60.7969 328.484 56.8125 328.484 52.1875C328.484 47.6875 329.547 43.6094 331.672 39.9531C333.797 36.2969 336.703 33.3906 340.391 31.2344C344.078 29.0781 348.234 28 352.859 28C354.922 28 357.125 28.3438 359.469 29.0312C361.812 29.7188 363.516 30.6094 364.578 31.7031C364.672 32.2031 364.547 33.0938 364.203 34.375C363.859 35.625 363.422 36.8906 362.891 38.1719C362.391 39.4219 361.953 40.3281 361.578 40.8906L359.375 40.4219C358.688 38.6719 357.5 37.0625 355.812 35.5938C354.156 34.125 351.844 33.3906 348.875 33.3906C346.812 33.3906 344.859 34.0156 343.016 35.2656C341.203 36.5156 339.734 38.4219 338.609 40.9844C337.484 43.5469 336.922 46.7969 336.922 50.7344C336.922 54.2031 337.547 57.2188 338.797 59.7812C340.078 62.3125 341.766 64.2656 343.859 65.6406C345.953 67.0156 348.203 67.7031 350.609 67.7031C351.797 67.7031 352.906 67.6094 353.938 67.4219C354.969 67.2031 356.188 66.6875 357.594 65.875C359 65.0312 360.844 63.6719 363.125 61.7969L365.188 64.0938ZM409.062 46.9844C408.5 47.6406 407.672 48.2812 406.578 48.9062C405.484 49.5 404.438 49.9844 403.438 50.3594H376.062L376.156 45.8125H398.422C399.141 45.8125 399.609 45.7031 399.828 45.4844C400.078 45.2344 400.203 44.7812 400.203 44.125C400.203 42.9688 399.953 41.5312 399.453 39.8125C398.984 38.0625 398.094 36.5156 396.781 35.1719C395.469 33.8281 393.547 33.1562 391.016 33.1562C387.391 33.1562 384.578 34.7188 382.578 37.8438C380.609 40.9688 379.625 44.9531 379.625 49.7969C379.625 53.0469 380.141 56.0312 381.172 58.75C382.203 61.4688 383.703 63.6406 385.672 65.2656C387.641 66.8906 390.016 67.7031 392.797 67.7031C394.109 67.7031 395.375 67.5781 396.594 67.3281C397.844 67.0781 399.266 66.5156 400.859 65.6406C402.453 64.7656 404.438 63.4062 406.812 61.5625C407.219 61.7812 407.609 62.1562 407.984 62.6875C408.391 63.2188 408.656 63.6094 408.781 63.8594C405.969 66.8594 403.547 69.125 401.516 70.6562C399.484 72.1562 397.547 73.1562 395.703 73.6562C393.859 74.1562 391.812 74.4062 389.562 74.4062C386.25 74.4062 383.188 73.5 380.375 71.6875C377.562 69.875 375.297 67.3281 373.578 64.0469C371.891 60.7656 371.047 56.9219 371.047 52.5156C371.047 48.2969 371.922 44.375 373.672 40.75C375.453 37.125 377.953 34.1875 381.172 31.9375C382.641 30.9062 384.406 30 386.469 29.2188C388.562 28.4062 390.562 28 392.469 28C395.531 28 398.109 28.5781 400.203 29.7344C402.328 30.8594 404.047 32.3594 405.359 34.2344C406.672 36.1094 407.609 38.1719 408.172 40.4219C408.766 42.6406 409.062 44.8281 409.062 46.9844ZM450.359 29.8281C450.641 30.0156 450.75 30.625 450.688 31.6562C450.656 32.6875 450.484 33.9219 450.172 35.3594C449.891 36.7656 449.547 38.1562 449.141 39.5312C448.766 40.875 448.391 41.9688 448.016 42.8125H445.531C445.188 40.2812 444.547 38.3906 443.609 37.1406C442.703 35.8906 441.609 35.2656 440.328 35.2656C438.984 35.2656 437.328 36.2656 435.359 38.2656C433.391 40.2344 431.594 43.6719 429.969 48.5781V67.6562C429.969 68.125 430.578 68.6094 431.797 69.1094C433.016 69.6094 435.094 70.0781 438.031 70.5156V73H415.109V70.5156C419.391 69.5469 421.531 68.5938 421.531 67.6562V41.1719C421.531 39.1094 421.422 37.6719 421.203 36.8594C420.984 36.0469 420.734 35.5 420.453 35.2188C420.047 34.8125 419.484 34.5312 418.766 34.375C418.047 34.1875 416.828 34.0469 415.109 33.9531V31.6094C417.578 31.1406 419.781 30.6406 421.719 30.1094C423.688 29.5781 425.625 28.875 427.531 28L429.266 29.7344L429.875 39.1094C431.562 35.9844 433.562 33.3594 435.875 31.2344C438.219 29.0781 440.734 28 443.422 28C444.484 28 445.625 28.1406 446.844 28.4219C448.062 28.7031 449.234 29.1719 450.359 29.8281Z" fill="#FFFAE7"/>
</svg>
